<svg width="297" height="48" viewBox="0 0 297 48" fill="none" xmlns="http://www.w3.org/2000/svg">
<path d="M0.447998 47V1.49596C3.98933 1.15462 7.424 0.983955 10.752 0.983955C15.232 0.983955 18.816 2.02929 21.504 4.11996C24.2347 6.21062 25.6 9.36796 25.6 13.592C25.6 17.7733 23.744 21.2293 20.032 23.96C16.3627 26.648 11.968 27.992 6.848 27.992C6.63467 27.992 6.4 27.992 6.144 27.992V25.88C6.31467 25.88 6.464 25.88 6.592 25.88C10.816 25.88 14.4853 24.7706 17.6 22.552C20.7147 20.3333 22.272 17.4533 22.272 13.912C22.272 10.328 21.184 7.74662 19.008 6.16796C16.832 4.54662 13.9093 3.73595 10.24 3.73595C8.32 3.73595 6.08 3.82129 3.52 3.99195V47H0.447998Z" fill="white"/>
<path d="M37.6355 47V1.23996H40.7075V44.184H61.7635V47H37.6355Z" fill="white"/>
<path d="M74.0675 31.128L67.4755 47H64.2115L83.4755 0.919956H85.2675L104.595 47H101.14L94.5475 31.128H74.0675ZM84.1795 6.03996C84.1368 6.08262 84.0515 6.33862 83.9235 6.80796C83.3262 8.64262 82.7502 10.2 82.1955 11.48L75.1555 28.504H93.4595L86.4195 11.544C84.9262 8.30129 84.1795 6.46662 84.1795 6.03996Z" fill="white"/>
<path d="M117.017 8.53596L117.145 13.976V47H114.073V0.855957H115.481L145.625 35.608C147.673 38.04 149.252 39.9813 150.361 41.432C150.19 39.384 150.105 37.0373 150.105 34.392V1.23996H153.177V47.384H151.769L121.049 11.992C118.916 9.55996 117.55 7.93862 116.953 7.12796L117.017 8.53596Z" fill="white"/>
<path d="M173.017 8.53596L173.145 13.976V47H170.073V0.855957H171.481L201.625 35.608C203.673 38.04 205.252 39.9813 206.361 41.432C206.19 39.384 206.105 37.0373 206.105 34.392V1.23996H209.177V47.384H207.769L177.049 11.992C174.916 9.55996 173.55 7.93862 172.953 7.12796L173.017 8.53596Z" fill="white"/>
<path d="M226.073 47V1.23996H247.321V3.92796H229.145V20.76H245.593V23.384H229.145V44.312H248.025V47H226.073Z" fill="white"/>
<path d="M260.323 47V1.43196C264.376 1.13329 267.768 0.983955 270.499 0.983955C274.851 0.983955 278.435 2.11462 281.251 4.37596C284.067 6.59462 285.475 9.75196 285.475 13.848C285.475 16.6213 284.664 19.2026 283.043 21.592C281.422 23.9813 279.608 25.88 277.603 27.288C279.182 29.464 281.123 32.0666 283.427 35.096C285.774 38.0826 287.288 39.96 287.971 40.728C290.574 43.5013 293.518 45.08 296.803 45.464L296.739 47.512C294.136 47.4693 292.024 47.0853 290.403 46.36C288.782 45.592 287.224 44.44 285.731 42.904C284.28 41.368 280.632 36.5893 274.787 28.568C270.606 28.568 266.808 28.44 263.395 28.184V47H260.323ZM272.931 26.008C274.808 26.008 276.814 24.7706 278.947 22.296C281.08 19.8213 282.147 16.9626 282.147 13.72C282.147 10.4346 281.038 7.95996 278.819 6.29596C276.643 4.58929 273.742 3.73595 270.115 3.73595C268.195 3.73595 265.955 3.82129 263.395 3.99195V25.688C266.808 25.9013 269.987 26.008 272.931 26.008Z" fill="white"/>
</svg>
