<svg width="500" height="500" viewBox="0 0 500 500" fill="none" xmlns="http://www.w3.org/2000/svg">
<rect width="500" height="500" rx="64" fill="#202020"/>
<path d="M199 196.551V100.551C199 96.3076 200.679 92.2379 203.668 89.2373C206.657 86.2367 210.711 84.551 214.938 84.551H294.625C296.316 84.551 297.937 85.2253 299.133 86.4255C300.328 87.6258 301 89.2536 301 90.951V206.151C301 207.848 300.328 209.476 299.133 210.677C297.937 211.877 296.316 212.551 294.625 212.551H214.938C210.711 212.551 206.657 210.865 203.668 207.865C200.679 204.864 199 200.794 199 196.551ZM199 196.551C199 192.308 200.679 188.238 203.668 185.237C206.657 182.237 210.711 180.551 214.938 180.551H301" stroke="white" stroke-width="12" stroke-linecap="round" stroke-linejoin="round"/>
<path d="M95.1016 287.068C94.9652 285.693 94.38 284.625 93.3459 283.864C92.3118 283.102 90.9084 282.722 89.1357 282.722C87.9311 282.722 86.9141 282.892 86.0845 283.233C85.255 283.563 84.6186 284.023 84.1754 284.614C83.7436 285.205 83.5277 285.875 83.5277 286.625C83.505 287.25 83.6357 287.796 83.9197 288.261C84.2152 288.727 84.6186 289.131 85.13 289.472C85.6413 289.801 86.2322 290.091 86.9027 290.341C87.5732 290.58 88.2891 290.784 89.0504 290.955L92.1868 291.705C93.7095 292.046 95.1072 292.5 96.38 293.068C97.6527 293.636 98.755 294.335 99.6868 295.165C100.619 295.994 101.34 296.972 101.852 298.097C102.374 299.222 102.641 300.511 102.653 301.966C102.641 304.102 102.096 305.955 101.016 307.523C99.9482 309.08 98.4027 310.29 96.38 311.154C94.3686 312.006 91.9425 312.432 89.1016 312.432C86.2834 312.432 83.8288 312 81.7379 311.136C79.6584 310.273 78.0334 308.994 76.8629 307.301C75.7038 305.597 75.0959 303.489 75.0391 300.977H82.1811C82.2607 302.148 82.5959 303.125 83.1868 303.909C83.7891 304.682 84.5902 305.267 85.5902 305.665C86.6016 306.051 87.7436 306.244 89.0163 306.244C90.2663 306.244 91.3516 306.063 92.272 305.699C93.2038 305.335 93.9254 304.83 94.4368 304.182C94.9482 303.534 95.2038 302.79 95.2038 301.949C95.2038 301.165 94.9709 300.506 94.505 299.972C94.0504 299.438 93.38 298.983 92.4936 298.608C91.6186 298.233 90.5447 297.892 89.272 297.585L85.4709 296.631C82.5277 295.915 80.2038 294.796 78.4993 293.273C76.7947 291.75 75.9482 289.699 75.9595 287.119C75.9482 285.006 76.5107 283.159 77.647 281.58C78.7947 280 80.3686 278.767 82.3686 277.881C84.3686 276.994 86.6413 276.551 89.1868 276.551C91.7777 276.551 94.0391 276.994 95.9709 277.881C97.9141 278.767 99.4254 280 100.505 281.58C101.585 283.159 102.141 284.989 102.175 287.068H95.1016Z" fill="white"/>
<path d="M119.31 312.449C116.629 312.449 114.322 311.881 112.39 310.744C110.469 309.597 108.992 308.006 107.958 305.972C106.935 303.938 106.424 301.597 106.424 298.949C106.424 296.267 106.941 293.915 107.975 291.892C109.021 289.858 110.504 288.273 112.424 287.136C114.344 285.989 116.629 285.415 119.276 285.415C121.56 285.415 123.56 285.83 125.276 286.659C126.992 287.489 128.35 288.654 129.35 290.154C130.35 291.654 130.901 293.415 131.004 295.438H124.151C123.958 294.131 123.447 293.08 122.617 292.284C121.799 291.477 120.725 291.074 119.396 291.074C118.271 291.074 117.288 291.381 116.447 291.994C115.617 292.597 114.969 293.477 114.504 294.636C114.038 295.796 113.805 297.199 113.805 298.847C113.805 300.517 114.032 301.938 114.487 303.108C114.952 304.279 115.606 305.171 116.447 305.784C117.288 306.398 118.271 306.705 119.396 306.705C120.225 306.705 120.969 306.534 121.629 306.193C122.299 305.852 122.85 305.358 123.282 304.71C123.725 304.051 124.015 303.261 124.151 302.341H131.004C130.89 304.341 130.344 306.102 129.367 307.625C128.401 309.136 127.066 310.318 125.362 311.171C123.657 312.023 121.64 312.449 119.31 312.449Z" fill="white"/>
<path d="M142.914 296.801V311.938H135.653V277.029H142.71V290.375H143.016C143.607 288.83 144.562 287.619 145.88 286.744C147.198 285.858 148.852 285.415 150.84 285.415C152.658 285.415 154.244 285.813 155.596 286.608C156.96 287.392 158.016 288.523 158.766 290C159.528 291.466 159.903 293.222 159.891 295.267V311.938H152.63V296.563C152.641 294.949 152.232 293.693 151.403 292.796C150.585 291.898 149.437 291.449 147.96 291.449C146.971 291.449 146.096 291.659 145.335 292.08C144.585 292.5 143.994 293.114 143.562 293.921C143.141 294.716 142.925 295.676 142.914 296.801Z" fill="white"/>
<path d="M177.435 312.449C174.788 312.449 172.498 311.886 170.566 310.761C168.646 309.625 167.163 308.046 166.117 306.023C165.072 303.989 164.549 301.631 164.549 298.949C164.549 296.244 165.072 293.881 166.117 291.858C167.163 289.824 168.646 288.244 170.566 287.119C172.498 285.983 174.788 285.415 177.435 285.415C180.083 285.415 182.367 285.983 184.288 287.119C186.219 288.244 187.708 289.824 188.754 291.858C189.799 293.881 190.322 296.244 190.322 298.949C190.322 301.631 189.799 303.989 188.754 306.023C187.708 308.046 186.219 309.625 184.288 310.761C182.367 311.886 180.083 312.449 177.435 312.449ZM177.469 306.824C178.674 306.824 179.68 306.483 180.487 305.801C181.293 305.108 181.901 304.165 182.31 302.972C182.731 301.779 182.941 300.421 182.941 298.898C182.941 297.375 182.731 296.017 182.31 294.824C181.901 293.631 181.293 292.688 180.487 291.994C179.68 291.301 178.674 290.955 177.469 290.955C176.254 290.955 175.231 291.301 174.401 291.994C173.583 292.688 172.964 293.631 172.543 294.824C172.134 296.017 171.93 297.375 171.93 298.898C171.93 300.421 172.134 301.779 172.543 302.972C172.964 304.165 173.583 305.108 174.401 305.801C175.231 306.483 176.254 306.824 177.469 306.824Z" fill="white"/>
<path d="M206.873 312.449C204.225 312.449 201.935 311.886 200.004 310.761C198.083 309.625 196.6 308.046 195.555 306.023C194.509 303.989 193.987 301.631 193.987 298.949C193.987 296.244 194.509 293.881 195.555 291.858C196.6 289.824 198.083 288.244 200.004 287.119C201.935 285.983 204.225 285.415 206.873 285.415C209.521 285.415 211.805 285.983 213.725 287.119C215.657 288.244 217.146 289.824 218.191 291.858C219.237 293.881 219.759 296.244 219.759 298.949C219.759 301.631 219.237 303.989 218.191 306.023C217.146 308.046 215.657 309.625 213.725 310.761C211.805 311.886 209.521 312.449 206.873 312.449ZM206.907 306.824C208.112 306.824 209.117 306.483 209.924 305.801C210.731 305.108 211.339 304.165 211.748 302.972C212.168 301.779 212.379 300.421 212.379 298.898C212.379 297.375 212.168 296.017 211.748 294.824C211.339 293.631 210.731 292.688 209.924 291.994C209.117 291.301 208.112 290.955 206.907 290.955C205.691 290.955 204.668 291.301 203.839 291.994C203.021 292.688 202.401 293.631 201.981 294.824C201.572 296.017 201.367 297.375 201.367 298.898C201.367 300.421 201.572 301.779 201.981 302.972C202.401 304.165 203.021 305.108 203.839 305.801C204.668 306.483 205.691 306.824 206.907 306.824Z" fill="white"/>
<path d="M231.742 277.029V311.938H224.481V277.029H231.742Z" fill="white"/>
<path d="M248.805 311.938V277.029H262.577C265.225 277.029 267.481 277.534 269.344 278.546C271.208 279.546 272.629 280.938 273.606 282.722C274.594 284.494 275.089 286.54 275.089 288.858C275.089 291.176 274.589 293.222 273.589 294.994C272.589 296.767 271.14 298.148 269.242 299.136C267.356 300.125 265.072 300.619 262.39 300.619H253.612V294.705H261.197C262.617 294.705 263.788 294.46 264.708 293.972C265.64 293.472 266.333 292.784 266.788 291.909C267.254 291.023 267.487 290.006 267.487 288.858C267.487 287.699 267.254 286.688 266.788 285.824C266.333 284.949 265.64 284.273 264.708 283.796C263.776 283.307 262.594 283.063 261.163 283.063H256.185V311.938H248.805Z" fill="white"/>
<path d="M287.008 277.029V311.938H279.746V277.029H287.008Z" fill="white"/>
<path d="M300.29 312.432C298.62 312.432 297.131 312.142 295.825 311.563C294.518 310.972 293.484 310.102 292.722 308.955C291.972 307.796 291.597 306.352 291.597 304.625C291.597 303.171 291.864 301.949 292.398 300.96C292.933 299.972 293.66 299.176 294.58 298.574C295.501 297.972 296.546 297.517 297.717 297.21C298.898 296.904 300.137 296.688 301.433 296.563C302.955 296.404 304.183 296.256 305.114 296.119C306.046 295.972 306.722 295.756 307.143 295.472C307.563 295.188 307.773 294.767 307.773 294.21V294.108C307.773 293.029 307.433 292.193 306.751 291.602C306.08 291.011 305.126 290.716 303.887 290.716C302.58 290.716 301.54 291.006 300.768 291.585C299.995 292.154 299.484 292.869 299.234 293.733L292.518 293.188C292.859 291.597 293.529 290.222 294.529 289.063C295.529 287.892 296.819 286.994 298.398 286.369C299.989 285.733 301.83 285.415 303.921 285.415C305.376 285.415 306.768 285.585 308.097 285.926C309.438 286.267 310.626 286.796 311.66 287.511C312.705 288.227 313.529 289.148 314.131 290.273C314.734 291.386 315.035 292.722 315.035 294.279V311.938H308.148V308.307H307.944C307.523 309.125 306.961 309.847 306.256 310.472C305.552 311.085 304.705 311.568 303.717 311.921C302.728 312.261 301.586 312.432 300.29 312.432ZM302.37 307.421C303.438 307.421 304.381 307.21 305.2 306.79C306.018 306.358 306.66 305.779 307.126 305.051C307.592 304.324 307.825 303.5 307.825 302.58V299.801C307.597 299.949 307.285 300.085 306.887 300.21C306.501 300.324 306.063 300.432 305.575 300.534C305.086 300.625 304.597 300.71 304.109 300.79C303.62 300.858 303.177 300.921 302.779 300.977C301.927 301.102 301.183 301.301 300.546 301.574C299.91 301.847 299.415 302.216 299.063 302.682C298.711 303.136 298.535 303.705 298.535 304.386C298.535 305.375 298.893 306.131 299.609 306.654C300.336 307.165 301.256 307.421 302.37 307.421Z" fill="white"/>
<path d="M327.93 296.801V311.938H320.668V285.756H327.589V290.375H327.896C328.475 288.852 329.447 287.648 330.81 286.761C332.174 285.864 333.827 285.415 335.771 285.415C337.589 285.415 339.174 285.813 340.526 286.608C341.879 287.404 342.93 288.54 343.68 290.017C344.43 291.483 344.805 293.233 344.805 295.267V311.938H337.543V296.563C337.555 294.96 337.146 293.71 336.316 292.813C335.486 291.904 334.344 291.449 332.89 291.449C331.913 291.449 331.049 291.659 330.299 292.08C329.56 292.5 328.981 293.114 328.56 293.921C328.151 294.716 327.941 295.676 327.93 296.801Z" fill="white"/>
<path d="M357.789 296.801V311.938H350.528V285.756H357.448V290.375H357.755C358.335 288.852 359.306 287.648 360.67 286.761C362.033 285.864 363.687 285.415 365.63 285.415C367.448 285.415 369.033 285.813 370.386 286.608C371.738 287.404 372.789 288.54 373.539 290.017C374.289 291.483 374.664 293.233 374.664 295.267V311.938H367.403V296.563C367.414 294.96 367.005 293.71 366.175 292.813C365.346 291.904 364.204 291.449 362.749 291.449C361.772 291.449 360.908 291.659 360.158 292.08C359.42 292.5 358.84 293.114 358.42 293.921C358.011 294.716 357.8 295.676 357.789 296.801Z" fill="white"/>
<path d="M392.319 312.449C389.626 312.449 387.308 311.904 385.364 310.813C383.433 309.71 381.944 308.154 380.898 306.142C379.853 304.119 379.33 301.727 379.33 298.966C379.33 296.273 379.853 293.909 380.898 291.875C381.944 289.841 383.415 288.256 385.313 287.119C387.222 285.983 389.461 285.415 392.029 285.415C393.756 285.415 395.364 285.693 396.853 286.25C398.353 286.796 399.66 287.619 400.773 288.722C401.898 289.824 402.773 291.21 403.398 292.881C404.023 294.54 404.336 296.483 404.336 298.71V300.705H382.228V296.205H397.501C397.501 295.159 397.273 294.233 396.819 293.426C396.364 292.619 395.734 291.989 394.927 291.534C394.131 291.068 393.205 290.835 392.148 290.835C391.046 290.835 390.069 291.091 389.217 291.602C388.376 292.102 387.717 292.779 387.239 293.631C386.762 294.472 386.518 295.409 386.506 296.443V300.722C386.506 302.017 386.745 303.136 387.222 304.08C387.711 305.023 388.398 305.75 389.285 306.261C390.171 306.773 391.222 307.029 392.438 307.029C393.245 307.029 393.984 306.915 394.654 306.688C395.325 306.46 395.898 306.119 396.376 305.665C396.853 305.21 397.217 304.654 397.467 303.994L404.183 304.438C403.842 306.051 403.143 307.46 402.086 308.665C401.04 309.858 399.688 310.79 398.029 311.46C396.381 312.119 394.478 312.449 392.319 312.449Z" fill="white"/>
<path d="M409.075 311.938V285.756H416.114V290.324H416.387C416.864 288.699 417.665 287.472 418.79 286.642C419.915 285.801 421.211 285.381 422.677 285.381C423.04 285.381 423.433 285.404 423.853 285.449C424.273 285.494 424.643 285.557 424.961 285.636V292.08C424.62 291.977 424.148 291.886 423.546 291.807C422.944 291.727 422.393 291.688 421.893 291.688C420.825 291.688 419.87 291.921 419.029 292.386C418.2 292.841 417.54 293.477 417.052 294.296C416.575 295.114 416.336 296.057 416.336 297.125V311.938H409.075Z" fill="white"/>
<path opacity="0.5" d="M232.273 384.176V407.449H227.432V384.176H232.273ZM236.151 407.449V389.994H240.991V407.449H236.151ZM238.582 387.744C237.863 387.744 237.245 387.506 236.73 387.029C236.223 386.544 235.969 385.964 235.969 385.29C235.969 384.623 236.223 384.051 236.73 383.574C237.245 383.089 237.863 382.847 238.582 382.847C239.302 382.847 239.916 383.089 240.423 383.574C240.938 384.051 241.196 384.623 241.196 385.29C241.196 385.964 240.938 386.544 240.423 387.029C239.916 387.506 239.302 387.744 238.582 387.744ZM254.153 389.994V393.631H243.642V389.994H254.153ZM246.028 385.813H250.869V402.085C250.869 402.532 250.938 402.881 251.074 403.131C251.21 403.373 251.4 403.544 251.642 403.642C251.892 403.741 252.18 403.79 252.506 403.79C252.733 403.79 252.96 403.771 253.188 403.733C253.415 403.688 253.589 403.654 253.71 403.631L254.472 407.233C254.229 407.309 253.888 407.396 253.449 407.494C253.009 407.6 252.475 407.665 251.847 407.688C250.68 407.733 249.657 407.578 248.778 407.222C247.907 406.866 247.229 406.313 246.744 405.563C246.259 404.813 246.021 403.866 246.028 402.722V385.813ZM265.074 407.79C263.278 407.79 261.733 407.426 260.438 406.699C259.15 405.964 258.157 404.926 257.46 403.585C256.763 402.237 256.415 400.642 256.415 398.801C256.415 397.006 256.763 395.43 257.46 394.074C258.157 392.718 259.138 391.661 260.403 390.904C261.676 390.146 263.169 389.767 264.881 389.767C266.032 389.767 267.104 389.953 268.097 390.324C269.097 390.688 269.968 391.237 270.71 391.972C271.46 392.707 272.044 393.631 272.46 394.744C272.877 395.85 273.085 397.146 273.085 398.631V399.96H258.347V396.96H268.528C268.528 396.263 268.377 395.646 268.074 395.108C267.771 394.57 267.35 394.15 266.812 393.847C266.282 393.536 265.665 393.381 264.96 393.381C264.225 393.381 263.574 393.551 263.006 393.892C262.445 394.225 262.006 394.676 261.688 395.244C261.369 395.805 261.206 396.43 261.199 397.119V399.972C261.199 400.835 261.358 401.582 261.676 402.21C262.002 402.839 262.46 403.324 263.051 403.665C263.642 404.006 264.343 404.176 265.153 404.176C265.691 404.176 266.184 404.1 266.631 403.949C267.078 403.797 267.46 403.57 267.778 403.267C268.097 402.964 268.339 402.593 268.506 402.154L272.983 402.449C272.756 403.525 272.29 404.464 271.585 405.267C270.888 406.063 269.987 406.684 268.881 407.131C267.782 407.57 266.513 407.79 265.074 407.79Z" fill="white"/>
</svg>
